<?xml version="1.0" encoding="utf-8"?>
<!-- Generator: Adobe Illustrator 16.0.0, SVG Export Plug-In . SVG Version: 6.00 Build 0)  -->
<!DOCTYPE svg PUBLIC "-//W3C//DTD SVG 1.1//EN" "http://www.w3.org/Graphics/SVG/1.1/DTD/svg11.dtd">
<svg version="1.1" id="Ebene_1" xmlns="http://www.w3.org/2000/svg" xmlns:xlink="http://www.w3.org/1999/xlink" x="0px" y="0px"
	 width="27.04px" height="26.19px" viewBox="0.48 1.259 27.04 26.19" enable-background="new 0.48 1.259 27.04 26.19"
	 xml:space="preserve">
<g>
	<path fill="#12C4AA" d="M14,1.574c-7.028,0-12.78,5.751-12.78,12.78c0,7.03,5.752,12.78,12.78,12.78c7.03,0,12.78-5.75,12.78-12.78
		C26.779,7.326,21.029,1.574,14,1.574z M14,25.309c-6.026,0-10.955-4.928-10.955-10.954C3.044,8.329,7.974,3.399,14,3.399
		c6.024,0,10.956,4.929,10.956,10.955S20.023,25.309,14,25.309z"/>
	<polygon fill="#12C4AA" points="12.539,16.82 8.613,13.99 7.518,15.45 12.812,19.285 20.662,10.064 19.203,8.877 	"/>
</g>
</svg>
