<?xml version="1.0" encoding="utf-8"?>
<!-- Generator: Adobe Illustrator 16.0.0, SVG Export Plug-In . SVG Version: 6.00 Build 0)  -->
<!DOCTYPE svg PUBLIC "-//W3C//DTD SVG 1.1//EN" "http://www.w3.org/Graphics/SVG/1.1/DTD/svg11.dtd">
<svg version="1.1" id="Ebene_1" xmlns="http://www.w3.org/2000/svg" xmlns:xlink="http://www.w3.org/1999/xlink" x="0px" y="0px"
	 width="34.44px" height="33.5px" viewBox="-3.699 -3.656 34.44 33.5" enable-background="new -3.699 -3.656 34.44 33.5"
	 xml:space="preserve">
<g>
	<g>
		<path fill="#12C4AA" stroke="#12C4AA" stroke-width="0.5" stroke-miterlimit="10" d="M13.521-3.219
			c-8.972,0-16.312,7.34-16.312,16.312c0,8.974,7.341,16.313,16.312,16.313c8.971,0,16.312-7.342,16.312-16.313
			C29.834,4.122,22.492-3.219,13.521-3.219z M13.521,27.075c-7.69,0-13.981-6.291-13.981-13.982S5.831-0.886,13.521-0.886
			s13.979,6.288,13.979,13.979C27.501,20.786,21.212,27.075,13.521,27.075z"/>
	</g>
	<polygon fill="#12C4AA" stroke="#12C4AA" stroke-width="1.2475" stroke-miterlimit="10" points="14.988,3.392 13.962,4.418 
		21.511,11.969 2.745,11.969 2.745,13.434 21.511,13.434 13.962,20.986 14.988,22.012 24.298,12.701 	"/>
</g>
</svg>
