<?xml version="1.0" encoding="utf-8"?>
<!-- Generator: Adobe Illustrator 16.0.0, SVG Export Plug-In . SVG Version: 6.00 Build 0)  -->
<!DOCTYPE svg PUBLIC "-//W3C//DTD SVG 1.1//EN" "http://www.w3.org/Graphics/SVG/1.1/DTD/svg11.dtd">
<svg version="1.1" id="Ebene_1" xmlns="http://www.w3.org/2000/svg" xmlns:xlink="http://www.w3.org/1999/xlink" x="0px" y="0px"
	 width="34.438px" height="33.5px" viewBox="-4.98 -5.28 34.438 33.5" enable-background="new -4.98 -5.28 34.438 33.5"
	 xml:space="preserve">
<g>
	<path fill="#12C4AA" stroke="#12C4AA" stroke-width="0.5" stroke-miterlimit="10" d="M12.239-4.843
		c-8.971,0-16.312,7.34-16.312,16.312c0,8.974,7.341,16.313,16.312,16.313c8.971,0,16.312-7.342,16.312-16.313
		C28.551,2.498,21.209-4.843,12.239-4.843z M12.239,25.451c-7.69,0-13.981-6.291-13.981-13.982S4.548-2.51,12.239-2.51
		S26.218,3.779,26.218,11.47C26.218,19.162,19.929,25.451,12.239,25.451z"/>
	<polygon fill="#12C4AA" stroke="#12C4AA" stroke-width="0.5" stroke-miterlimit="10" points="13.403,10.305 13.403,0.986 
		11.074,0.986 11.074,10.305 1.755,10.305 1.755,12.635 11.074,12.635 11.074,21.955 13.403,21.955 13.403,12.635 22.721,12.635 
		22.721,10.305 	"/>
</g>
</svg>
