<?xml version="1.0" encoding="utf-8"?>
<!-- Generator: Adobe Illustrator 16.0.0, SVG Export Plug-In . SVG Version: 6.00 Build 0)  -->
<!DOCTYPE svg PUBLIC "-//W3C//DTD SVG 1.1//EN" "http://www.w3.org/Graphics/SVG/1.1/DTD/svg11.dtd">
<svg version="1.1" id="Ebene_1" xmlns="http://www.w3.org/2000/svg" xmlns:xlink="http://www.w3.org/1999/xlink" x="0px" y="0px"
	 width="27.043px" height="26.187px" viewBox="2.938 0 27.043 26.187" enable-background="new 2.938 0 27.043 26.187"
	 xml:space="preserve">
<g>
	<path fill="#12C4AA" d="M16.459,0.281c-7.046,0-12.812,5.765-12.812,12.812s5.766,12.812,12.812,12.812
		c7.047,0,12.812-5.766,12.812-12.812S23.506,0.281,16.459,0.281z M16.459,24.075c-6.04,0-10.981-4.941-10.981-10.982
		s4.941-10.98,10.981-10.98S27.44,7.053,27.44,13.094S22.499,24.075,16.459,24.075z"/>
	<polygon fill="#12C4AA" points="17.373,12.178 17.373,4.858 15.544,4.858 15.544,12.178 8.224,12.178 8.224,14.009 15.544,14.009 
		15.544,21.329 17.373,21.329 17.373,14.009 24.694,14.009 24.694,12.178 	"/>
</g>
</svg>
