<?xml version="1.0" encoding="utf-8"?>
<!-- Generator: Adobe Illustrator 16.0.0, SVG Export Plug-In . SVG Version: 6.00 Build 0)  -->
<!DOCTYPE svg PUBLIC "-//W3C//DTD SVG 1.1//EN" "http://www.w3.org/Graphics/SVG/1.1/DTD/svg11.dtd">
<svg version="1.1" id="Ebene_1" xmlns="http://www.w3.org/2000/svg" xmlns:xlink="http://www.w3.org/1999/xlink" x="0px" y="0px"
	 width="43.25px" height="35.75px" viewBox="0 -0.5 43.25 35.75" enable-background="new 0 -0.5 43.25 35.75" xml:space="preserve">
<g>
	<g>
		<polygon fill="#12C4AA" points="10.032,17.977 6.366,17.977 6.366,14.311 3.92,14.311 3.92,17.977 0.254,17.977 0.254,20.422 
			3.92,20.422 3.92,24.089 6.366,24.089 6.366,20.422 10.032,20.422 		"/>
	</g>
	<g>
		<path fill="#12C4AA" d="M31.87,28.236c-0.732-0.611-1.711-0.855-2.565-0.979c-0.979-0.244-1.956-0.488-2.69-1.1l-0.121-0.123
			c0,0-0.366-0.244-0.366-0.611c-0.122-0.366,0.244-0.854,0.487-1.1l0,0c1.711-2.2,2.445-4.278,2.445-6.479
			c0-4.4-3.545-7.944-7.945-7.944c-4.399,0-7.944,3.544-7.944,7.944c0,1.956,0.856,4.156,2.444,6.356l0,0
			c0.244,0.367,0.489,0.733,0.489,1.222c0,0.367-0.367,0.49-0.367,0.49l0,0l-0.244,0.244c-0.733,0.611-1.711,0.855-2.688,1.1
			c-0.979,0.244-1.834,0.367-2.567,0.979c-1.711,1.222-1.589,2.933-1.589,3.055v3.423h24.691v-3.3
			C33.338,31.169,33.459,29.458,31.87,28.236z M11.09,32.27v-0.123v-0.855c0,0,0-0.611,0.613-1.1
			c0.244-0.244,0.977-0.367,1.588-0.489c1.101-0.244,2.566-0.61,3.789-1.589c0.366-0.244,1.1-0.855,1.346-2.078
			c0.243-0.978-0.123-2.077-0.857-3.055l0,0c-1.344-1.834-1.955-3.545-1.955-5.012c0-3.057,2.445-5.5,5.5-5.5
			c3.057,0,5.5,2.443,5.5,5.5c0,1.711-0.609,3.178-1.955,4.889l0,0c-0.977,1.345-0.977,2.445-0.855,3.057
			c0.244,1.221,1.1,1.832,1.345,2.077c1.223,0.978,2.567,1.345,3.79,1.589c0.609,0.122,1.344,0.244,1.588,0.488
			c0.611,0.489,0.611,1.101,0.611,1.223v0.979H11.09L11.09,32.27z"/>
		<path fill="#12C4AA" d="M30.526,2.567c3.057,0,5.5,2.567,5.5,5.622c0,1.712-0.611,3.301-1.955,5.012l0,0
			c-0.979,1.345-0.979,2.444-0.855,3.056c0.244,1.223,1.1,1.834,1.345,2.078c1.222,0.978,2.566,1.345,3.788,1.589
			c0.611,0.122,1.346,0.244,1.59,0.489c0.611,0.489,0.611,1.101,0.611,1.222v0.855H30.77v2.445h12.224v-3.178
			c0-0.244,0.122-1.834-1.466-3.179c-0.734-0.61-1.711-0.733-2.568-0.978c-0.977-0.244-1.955-0.367-2.688-1.1l-0.123-0.123
			c0,0-0.367-0.244-0.367-0.611c-0.121-0.365,0.244-0.855,0.49-1.1c1.711-2.199,2.443-4.277,2.443-6.479
			c0-4.4-3.544-8.189-7.945-8.189c-4.399,0-8.188,4.156-8.188,7.823h2.444C25.026,5.379,27.47,2.567,30.526,2.567z"/>
	</g>
</g>
</svg>
