<?xml version="1.0" encoding="utf-8"?>
<!-- Generator: Adobe Illustrator 18.1.1, SVG Export Plug-In . SVG Version: 6.00 Build 0)  -->
<svg version="1.1" id="Isolation_Mode" xmlns="http://www.w3.org/2000/svg" xmlns:xlink="http://www.w3.org/1999/xlink" x="0px"
	 y="0px" viewBox="0 0 183.6 79.1" enable-background="new 0 0 183.6 79.1" xml:space="preserve">
<g>
	<path fill="#12C4AA" d="M45.9,17.3v12.1H29v48.6H16.9V29.5H0V17.3H45.9z"/>
	<path fill="#12C4AA" d="M49.3,78V17.3h12.1V78H49.3z"/>
	<path fill="#12C4AA" d="M65.4,78.1v-3.5l33.5-45.9H70.8V17.3h49.8v3.6L87,66.8h31.7v11.3H65.4z"/>
	<rect x="126" y="0" fill="#4B0AA5" width="51.9" height="12.3"/>
	<g>
		<path fill="#12C4AA" d="M183.6,47.7c0,17.3-14.1,31.5-31.5,31.5S120.6,65,120.6,47.7c0-17.3,14.1-31.5,31.5-31.5
			S183.6,30.3,183.6,47.7z M133.1,47.7c0,10.5,8.5,19,19,19c10.5,0,19-8.5,19-19c0-10.5-8.5-19-19-19
			C141.6,28.7,133.1,37.2,133.1,47.7z M144,47.7c0,4.7,3.4,8.1,8.1,8.1c4.7,0,8.1-3.4,8.1-8.1c0-4.7-3.4-8.1-8.1-8.1
			C147.4,39.6,144,43,144,47.7z"/>
		<path fill="#4B0AA5" d="M144,47.7c0,4.7,3.4,8.1,8.1,8.1c4.7,0,8.1-3.4,8.1-8.1c0-4.7-3.4-8.1-8.1-8.1C147.4,39.6,144,43,144,47.7
			z"/>
	</g>
</g>
</svg>
