<?xml version="1.0" encoding="utf-8"?>
<svg version="1.1" id="Layer_1" xmlns="http://www.w3.org/2000/svg" xmlns:xlink="http://www.w3.org/1999/xlink" x="0px" y="0px"
	 viewBox="0 0 300 133" enable-background="new 0 0 300 133" xml:space="preserve">
<g>
	<polygon fill="#FFFFFF" points="73.9,32.3 73.9,51.9 46.8,51.9 46.8,130.3 27.3,130.3 27.3,51.9 0,51.9 0,32.3 	"/>
	<rect x="81.9" y="32.3" fill="#FFFFFF" width="19.6" height="97.8"/>
	<polygon fill="#FFFFFF" points="109.4,130.3 109.4,123.6 164.9,50.6 118.2,50.6 118.2,32.3 198.5,32.3 198.5,38.7 144,112.1
		195.4,112.1 195.4,130.3 	"/>
	<g>
		<rect x="205.9" y="0" fill="#19C1A8" width="83.6" height="19.9"/>
		<path fill="#FFFFFF" d="M247.7,28.3c-28.8,0-52.3,23.5-52.3,52.3c0,28.8,23.5,52.3,52.3,52.3c28.8,0,52.3-23.5,52.3-52.3
			C300,51.8,276.5,28.3,247.7,28.3 M247.7,113.6c-18.2,0-32.9-14.7-32.9-32.9c0-18.2,14.7-32.9,32.9-32.9
			c18.2,0,32.9,14.7,32.9,32.9C280.6,98.8,265.9,113.6,247.7,113.6"/>
		<path fill="#4B0AA5" d="M247.7,67.7c-7.5,0-13,5.4-13,13c0,7.5,5.4,13,13,13c7.5,0,13-5.5,13-13C260.7,73.1,255.2,67.7,247.7,67.7
			"/>
	</g>
</g>
</svg>
