<?xml version="1.0" encoding="utf-8"?>
<!-- Generator: Adobe Illustrator 18.1.1, SVG Export Plug-In . SVG Version: 6.00 Build 0)  -->
<svg version="1.1" id="Layer_1" xmlns="http://www.w3.org/2000/svg" xmlns:xlink="http://www.w3.org/1999/xlink" x="0px" y="0px"
	 viewBox="0 0 250 111" enable-background="new 0 0 250 111" xml:space="preserve">
<g>
	<polygon fill="#12C4AA" points="61.3,26.8 61.3,43 38.8,43 38.8,108 22.6,108 22.6,43 0,43 0,26.8 	"/>
	<rect x="67.9" y="26.8" fill="#12C4AA" width="16.2" height="81.1"/>
	<polygon fill="#12C4AA" points="90.7,108 90.7,102.4 136.7,41.9 98,41.9 98,26.8 164.5,26.8 164.5,32.1 119.3,92.9 161.9,92.9 
		161.9,108 	"/>
	<g>
		<rect x="172" fill="#4B0AA5" width="69.3" height="16.5"/>
		<path fill="#12C4AA" d="M206.6,23.5c-23.9,0-43.4,19.5-43.4,43.4c0,23.9,19.5,43.4,43.4,43.4c23.9,0,43.4-19.5,43.4-43.4
			C250,42.9,230.5,23.5,206.6,23.5 M206.6,94.1c-15.1,0-27.3-12.2-27.3-27.3c0-15.1,12.2-27.3,27.3-27.3c15.1,0,27.3,12.2,27.3,27.3
			C233.9,81.9,221.7,94.1,206.6,94.1"/>
		<path fill="#717175" d="M206.6,56.1c-6.3,0-10.8,4.5-10.8,10.8c0,6.3,4.5,10.8,10.8,10.8c6.3,0,10.8-4.5,10.8-10.8
			C217.4,60.6,212.9,56.1,206.6,56.1"/>
	</g>
</g>
</svg>
