<?xml version="1.0" encoding="utf-8"?>
<!-- Generator: Adobe Illustrator 16.0.0, SVG Export Plug-In . SVG Version: 6.00 Build 0)  -->
<!DOCTYPE svg PUBLIC "-//W3C//DTD SVG 1.1//EN" "http://www.w3.org/Graphics/SVG/1.1/DTD/svg11.dtd">
<svg version="1.1" id="Layer_1" xmlns="http://www.w3.org/2000/svg" xmlns:xlink="http://www.w3.org/1999/xlink" x="0px" y="0px"
	 width="203.5px" height="93.75px" viewBox="0 0 203.5 93.75" enable-background="new 0 0 203.5 93.75" xml:space="preserve">
<g>
	<polygon fill="#FFFFFF" points="51.816,26.56 51.816,38.417 35.383,38.417 35.383,85.938 23.523,85.938 23.523,38.417 
		7.002,38.417 7.002,26.56 	"/>
	<rect x="56.645" y="26.56" fill="#FFFFFF" width="11.857" height="59.294"/>
	<polygon fill="#FFFFFF" points="73.332,85.938 73.332,81.869 106.969,37.656 78.668,37.656 78.668,26.56 127.291,26.56 
		127.291,30.443 94.275,74.928 125.424,74.928 125.424,85.938 	"/>
	<g>
		<rect x="136.783" y="6.979" fill="#3ABDB0" width="50.689" height="12.068"/>
		<path fill="#FFFFFF" d="M162.127,24.142c-17.473,0-31.711,14.239-31.711,31.712c0,17.472,14.238,31.711,31.711,31.711
			s31.711-14.239,31.711-31.711C193.838,38.381,179.6,24.142,162.127,24.142 M162.127,75.791c-11.014,0-19.938-8.922-19.938-19.937
			c0-11.014,8.924-19.937,19.938-19.937s19.936,8.922,19.936,19.937C182.062,66.869,173.141,75.791,162.127,75.791"/>
		<path fill="#BCBBC0" d="M162.127,47.977c-4.576,0-7.877,3.303-7.877,7.878s3.301,7.878,7.877,7.878
			c4.574,0,7.879-3.303,7.879-7.878S166.701,47.977,162.127,47.977"/>
	</g>
</g>
</svg>
